<?xml version="1.0" standalone="no"?>
<!DOCTYPE svg PUBLIC "-//W3C//DTD SVG 20010904//EN"
 "http://www.w3.org/TR/2001/REC-SVG-20010904/DTD/svg10.dtd">
<svg version="1.0" xmlns="http://www.w3.org/2000/svg"
 width="600.000000pt" height="600.000000pt" viewBox="0 0 600.000000 600.000000"
 preserveAspectRatio="xMidYMid meet">
<metadata>
Created by potrace 1.14, written by Peter Selinger 2001-2017
</metadata>
<g transform="translate(0.000000,600.000000) scale(0.100000,-0.100000)"
fill="#000000" stroke="none">
<path d="M2970 5963 c-28 -60 -23 -245 12 -391 21 -89 25 -87 -223 -88 -230 0
-231 0 -509 -70 -209 -52 -380 -61 -519 -27 -52 12 -150 66 -195 107 l-46 43
-6 -33 c-12 -63 13 -187 54 -276 38 -80 137 -209 179 -231 59 -32 80 -80 46
-109 -56 -47 -290 -83 -398 -60 -112 24 -151 35 -165 47 -8 6 -23 15 -33 18
-69 25 87 -159 201 -236 57 -38 55 -63 -5 -116 -114 -97 -131 -111 -139 -111
-5 0 -30 -19 -55 -43 -26 -23 -60 -52 -75 -65 -16 -13 -57 -45 -90 -72 -34
-28 -67 -50 -73 -50 -6 0 -11 -4 -11 -9 0 -4 -34 -36 -74 -70 -90 -74 -215
-201 -252 -256 -85 -126 -190 -362 -170 -382 3 -3 21 8 40 25 104 91 309 192
391 192 16 0 47 5 68 11 28 7 44 7 65 -3 48 -23 40 -48 -43 -122 -82 -73 -155
-167 -225 -286 -76 -128 -114 -220 -161 -394 -30 -106 -31 -120 -32 -316 -1
-218 4 -258 59 -440 33 -107 128 -294 196 -385 58 -77 127 -149 135 -142 2 3
0 30 -6 61 -10 55 0 266 15 326 10 36 34 60 59 60 32 0 42 -17 50 -85 27 -234
123 -500 252 -700 59 -91 144 -193 197 -238 78 -64 242 -164 253 -153 3 3 -10
24 -29 48 -88 111 -119 193 -86 226 15 15 54 16 63 2 14 -23 203 -104 300
-129 105 -27 238 -43 430 -52 281 -12 425 -40 583 -110 185 -83 364 -255 457
-440 33 -64 95 -259 95 -296 0 -25 27 -49 68 -64 29 -10 37 -8 75 16 53 35
132 103 222 191 64 63 78 71 155 96 115 37 331 93 410 108 36 6 89 21 118 32
61 24 60 23 100 173 25 91 27 116 27 280 l-1 180 -37 120 c-68 213 -186 409
-344 570 -69 71 -124 116 -340 283 -221 169 -351 321 -427 500 -46 108 -66
204 -68 331 -3 159 24 190 117 136 59 -35 186 -80 269 -95 51 -10 107 -11 210
-5 78 5 167 8 199 7 140 -3 292 -68 401 -173 90 -85 131 -158 147 -260 6 -41
12 -75 13 -76 4 -5 302 -63 325 -63 21 0 40 13 74 50 46 49 80 63 103 40 17
-17 132 60 225 152 l89 87 0 195 0 195 -175 175 c-96 96 -175 181 -175 190 0
8 -13 31 -30 49 -55 63 -221 311 -252 377 -42 90 -68 177 -68 231 0 43 -2 47
-42 69 -57 32 -182 152 -233 225 -48 69 -95 179 -95 225 0 22 14 47 50 91 93
112 110 172 110 395 0 96 6 185 14 224 8 36 13 66 11 68 -5 5 -77 -39 -116
-71 -22 -18 -60 -58 -85 -89 -39 -50 -50 -58 -79 -58 -26 0 -39 6 -51 25 -9
14 -32 42 -51 62 -87 95 -123 142 -123 163 0 38 32 143 49 163 15 18 14 18
-14 6 -39 -17 -130 -74 -176 -110 -42 -33 -71 -36 -114 -13 -77 41 -245 92
-340 104 -124 15 -347 63 -413 89 -27 11 -78 39 -112 63 -64 43 -170 153 -170
176 0 21 -16 13 -30 -15z m1124 -785 c-45 -50 -134 -188 -134 -208 -1 -9 -6
-5 -15 10 -14 25 -15 25 -10 -10 3 -19 2 -28 -1 -20 -4 8 -16 26 -28 39 -11
13 -16 22 -10 18 6 -3 10 7 10 26 0 61 61 166 143 247 l76 75 3 -68 c3 -67 2
-70 -34 -109z m138 -430 c-8 -8 -8 -15 -1 -24 8 -10 6 -12 -10 -9 -14 2 12
-29 71 -86 51 -49 96 -89 101 -89 4 0 5 -6 1 -12 -5 -9 -2 -9 9 1 9 7 17 10
17 6 0 -4 6 -2 14 4 11 10 23 0 62 -51 63 -83 238 -263 290 -298 37 -26 41
-34 57 -105 46 -212 277 -564 553 -842 122 -123 141 -153 124 -198 -7 -20 -7
-20 -14 1 -4 12 -65 77 -137 145 -128 120 -221 223 -331 366 -31 40 -58 70
-62 68 -3 -3 -4 -2 -1 1 10 15 -52 97 -66 88 -5 -3 -7 1 -4 8 2 7 -16 49 -40
93 -45 81 -62 98 -24 24 11 -22 18 -46 15 -52 -2 -7 -5 -4 -5 7 -1 12 -6 16
-16 13 -8 -4 -17 -1 -21 5 -4 7 -3 8 5 4 8 -6 10 0 6 21 -4 15 -8 39 -10 53
-1 14 -16 54 -32 90 -17 36 -36 83 -43 105 -16 53 -60 98 -142 147 -115 68
-198 89 -385 95 l-162 6 -10 28 c-5 16 -14 29 -19 29 -15 0 -33 -26 -24 -35 4
-5 2 -5 -5 -2 -12 8 -29 -46 -19 -62 4 -5 0 -11 -6 -14 -7 -2 -10 -8 -6 -12 4
-4 14 0 23 9 9 9 13 16 8 16 -4 0 -1 5 7 10 13 8 12 10 -2 10 -10 0 -18 5 -18
11 0 5 5 7 10 4 6 -3 10 0 11 7 0 10 2 10 6 1 2 -7 10 -13 16 -13 13 0 51 -51
63 -84 6 -15 4 -17 -7 -11 -8 5 -5 -1 5 -13 11 -12 16 -25 12 -29 -4 -4 -11
-1 -16 7 -6 8 -10 11 -10 5 0 -5 4 -16 9 -23 6 -10 10 -10 20 2 7 8 10 20 6
26 -24 39 94 -52 135 -104 14 -18 13 -19 -8 -14 -18 5 -21 4 -12 -6 8 -11 1
-13 -32 -13 -34 0 -38 1 -20 8 12 5 22 11 22 13 0 3 -6 3 -14 0 -8 -3 -19 3
-26 15 -13 26 -4 47 14 32 9 -8 13 -7 13 4 0 8 -4 12 -9 9 -4 -3 -8 1 -8 8 0
10 -2 10 -9 -1 -5 -8 -16 -11 -30 -6 -22 7 -30 -10 -8 -18 7 -3 6 -6 -5 -6
-17 -1 -31 14 -34 37 -1 6 -14 26 -28 43 -21 24 -26 27 -26 12 0 -15 -2 -16
-10 -3 -9 13 -11 13 -21 0 -8 -12 -9 -10 -4 7 5 17 3 22 -8 17 -15 -5 -30 27
-28 58 1 9 -3 19 -10 23 -8 5 -9 1 -4 -15 5 -15 4 -20 -4 -16 -7 5 -8 1 -4 -9
3 -10 0 -21 -7 -25 -18 -11 -15 -173 5 -252 42 -160 178 -320 348 -408 74 -39
39 -34 -66 9 -124 51 -186 97 -248 184 -71 101 -101 201 -102 337 -1 140 28
231 121 375 53 83 181 218 199 211 7 -3 12 -2 10 3 -1 5 9 18 23 29 27 23 41
29 22 10z m204 -180 c4 -7 4 -10 -1 -6 -4 4 -15 2 -24 -5 -14 -11 -14 -10 -2
6 16 20 18 21 27 5z m-402 -223 c3 -8 1 -15 -3 -15 -5 0 -11 7 -15 15 -3 8 -1
15 3 15 5 0 11 -7 15 -15z m-290 -360 c59 -202 220 -378 431 -469 168 -72 172
-78 35 -45 -196 46 -367 161 -437 294 -62 119 -88 275 -66 400 7 36 8 32 14
-40 3 -44 14 -107 23 -140z m716 143 c55 -17 79 -38 106 -89 25 -50 31 -79 15
-79 -13 0 -114 48 -131 62 -21 18 -90 109 -90 119 0 9 45 3 100 -13z m-166
-147 c-7 -8 -33 33 -34 52 0 10 -4 15 -10 12 -11 -7 -14 8 -3 18 7 8 53 -75
47 -82z m-34 8 c0 -5 -4 -9 -10 -9 -5 0 -10 7 -10 16 0 8 5 12 10 9 6 -3 10
-10 10 -16z m71 -36 c13 -16 12 -17 -3 -4 -17 13 -22 21 -14 21 2 0 10 -8 17
-17z m-945 -133 c5 -13 6 -13 14 0 9 13 10 13 10 0 0 -11 2 -12 8 -3 5 8 15
-6 26 -40 11 -28 34 -83 52 -120 37 -73 39 -81 24 -72 -6 4 -7 -1 -3 -11 4
-12 8 -14 11 -6 3 10 7 10 17 2 8 -6 12 -17 9 -25 -3 -7 0 -16 7 -21 8 -5 10
-3 5 7 -4 8 1 3 12 -11 11 -13 18 -28 16 -32 -3 -4 0 -8 7 -8 7 0 26 -15 43
-32 17 -18 55 -52 85 -75 30 -24 50 -43 46 -43 -5 0 -18 8 -29 18 -16 13 -18
13 -8 1 6 -9 9 -18 6 -21 -3 -4 8 -5 25 -4 17 1 31 -1 31 -5 0 -4 16 -13 35
-19 19 -6 41 -20 49 -31 7 -11 17 -19 22 -18 13 3 69 -19 104 -40 8 -5 26 -14
40 -20 14 -7 17 -9 8 -7 -10 3 -18 2 -18 -3 0 -12 168 -24 227 -17 37 5 43 4
25 -4 -51 -22 -196 -32 -300 -21 -105 11 -170 32 -262 83 -198 110 -341 339
-355 568 -5 68 -3 74 11 30z m1343 -84 c-3 -3 -11 5 -18 17 -13 21 -12 21 5 5
10 -10 16 -20 13 -22z m161 20 c0 -3 -4 -8 -10 -11 -5 -3 -10 -1 -10 4 0 6 5
11 10 11 6 0 10 -2 10 -4z m-2686 -835 c8 -11 8 -13 -1 -7 -8 4 -13 1 -13 -8
0 -9 5 -16 11 -16 7 0 9 -10 7 -25 -3 -14 -1 -25 3 -25 5 0 9 7 9 15 0 21 13
19 28 -5 7 -12 23 -20 40 -20 21 0 24 2 12 10 -9 6 -10 10 -3 10 6 0 15 -5 18
-10 4 -6 11 -8 16 -5 5 4 10 -4 11 -17 0 -13 4 -3 8 22 l7 45 1 -58 c4 -141
66 -364 148 -532 123 -255 252 -407 609 -721 191 -167 303 -305 384 -469 82
-168 121 -317 121 -463 l-1 -87 -33 103 c-50 150 -124 293 -214 412 -110 145
-188 222 -397 395 -304 252 -444 399 -566 595 -102 165 -187 383 -214 550 -14
88 -21 375 -8 340 3 -8 11 -21 17 -29z m795 -287 c132 -251 284 -430 576 -677
288 -244 405 -394 479 -614 18 -53 31 -106 28 -117 -5 -18 -6 -18 -14 4 -6 17
-11 21 -17 12 -4 -7 -22 22 -46 75 -41 91 -118 215 -169 273 -88 100 -328 330
-338 324 -6 -4 -8 -3 -5 3 8 12 -24 43 -47 47 -9 1 -15 5 -14 8 2 4 -29 39
-67 80 -39 40 -90 96 -114 123 -24 28 -41 44 -36 36 5 -10 4 -12 -4 -7 -6 4
-9 11 -6 15 2 5 -4 16 -15 26 -11 10 -20 25 -20 33 0 9 -6 12 -16 8 -8 -3 -13
-2 -10 3 3 5 -3 19 -13 32 -19 25 -57 86 -105 174 -52 92 -118 274 -130 355
-5 38 -3 35 17 -26 13 -40 52 -125 86 -190z m-449 -56 c0 -21 29 -51 44 -45 7
3 20 -15 31 -44 18 -45 35 -50 35 -9 0 12 -2 12 -9 2 -6 -11 -10 -9 -14 7 -4
17 -2 19 13 11 19 -10 36 -54 17 -44 -7 3 -4 -1 6 -9 9 -8 17 -17 17 -21 0 -4
29 -52 65 -107 36 -55 63 -105 59 -111 -4 -7 -3 -8 4 -4 6 4 19 -6 29 -21 48
-74 198 -238 325 -354 259 -237 371 -373 428 -523 9 -25 9 -27 -5 -16 -8 7
-12 17 -8 23 4 6 1 7 -6 3 -7 -5 -10 -14 -8 -20 3 -7 -1 -13 -8 -13 -8 0 -11
7 -7 15 3 10 1 13 -6 9 -6 -4 -21 7 -33 25 -75 108 -230 270 -404 423 -231
203 -371 369 -469 555 -55 104 -57 112 -42 129 18 20 14 65 -7 78 -7 4 -8 0
-2 -13 12 -29 11 -57 -1 -61 -10 -3 -36 68 -60 162 -4 16 -3 17 5 5 6 -8 11
-23 11 -32z m87 -50 c-3 -8 -6 -5 -6 6 -1 11 2 17 5 13 3 -3 4 -12 1 -19z
m347 -254 c3 -8 2 -12 -4 -9 -6 3 -10 10 -10 16 0 14 7 11 14 -7z m-1745 -99
c109 -247 231 -411 430 -579 104 -88 137 -110 151 -101 6 4 9 2 8 -4 -2 -6 13
-21 31 -33 19 -12 32 -17 27 -10 -4 6 -2 12 3 12 6 0 11 -7 11 -15 0 -18 36
-38 52 -29 6 4 8 3 5 -3 -3 -5 15 -20 41 -32 41 -20 47 -21 58 -7 12 17 29 22
19 6 -4 -6 10 -8 35 -6 37 4 40 3 23 -10 -17 -13 -17 -14 2 -8 16 5 17 4 5 -5
-22 -16 -40 -13 -40 7 0 14 -2 15 -10 2 -5 -8 -8 -16 -6 -17 6 -6 115 -43 136
-46 11 -2 23 -6 26 -10 4 -4 12 -7 18 -7 6 0 4 5 -4 10 -13 8 -13 10 2 10 9 0
21 -6 25 -14 5 -9 51 -23 118 -36 61 -12 148 -30 195 -40 47 -11 122 -27 168
-36 45 -9 81 -19 79 -21 -2 -2 -60 1 -128 7 -68 6 -216 14 -329 20 -232 11
-315 26 -456 88 -340 147 -634 503 -709 857 -15 74 -20 139 -6 100 4 -11 13
-33 20 -50z m1829 -30 c-3 -3 -9 2 -12 12 -6 14 -5 15 5 6 7 -7 10 -15 7 -18z
m163 -190 c6 -11 -11 4 -37 34 -27 30 -53 61 -57 70 -12 23 81 -80 94 -104z
m79 -74 c0 -5 12 -21 28 -36 15 -16 20 -24 11 -19 -8 5 -35 31 -60 58 -40 45
-41 48 -11 27 17 -12 32 -26 32 -30z m113 -131 c-5 -6 -53 50 -53 63 0 4 13
-7 29 -25 16 -18 27 -35 24 -38z m92 -82 c6 -5 6 -8 -1 -8 -11 0 -64 62 -64
75 0 4 12 -8 27 -27 15 -18 32 -36 38 -40z m40 -38 c4 -6 10 -8 15 -5 5 3 12
0 16 -7 4 -7 4 -10 -1 -6 -4 4 -13 4 -19 -2 -8 -6 -16 -2 -24 11 -7 10 -8 19
-3 19 6 0 13 -5 16 -10z m-1748 -115 c0 -8 -4 -12 -9 -9 -5 3 -6 10 -3 15 9
13 12 11 12 -6z m1829 -344 c8 7 14 7 14 1 0 -12 -26 -23 -34 -15 -3 4 -5 13
-5 22 1 12 2 12 6 -2 4 -14 8 -16 19 -6z m34 -116 c0 -14 -2 -25 -4 -25 -2 0
-6 11 -8 25 -3 14 -1 25 3 25 5 0 9 -11 9 -25z"/>
<path d="M4107 4625 c-24 -22 -25 -25 -8 -22 24 4 34 12 37 32 3 19 4 19 -29
-10z"/>
<path d="M4440 4536 c0 -2 8 -10 18 -17 15 -13 16 -12 3 4 -13 16 -21 21 -21
13z"/>
<path d="M3969 4408 c-1 -7 -1 -19 0 -25 1 -7 -3 -13 -9 -13 -5 0 -10 -10 -10
-22 0 -23 0 -22 13 2 13 25 20 70 11 70 -2 0 -5 -6 -5 -12z"/>
<path d="M4120 4170 c0 -5 5 -10 11 -10 5 0 7 5 4 10 -3 6 -8 10 -11 10 -2 0
-4 -4 -4 -10z"/>
<path d="M3818 3288 c5 -5 16 -8 23 -6 8 3 3 7 -10 11 -17 4 -21 3 -13 -5z"/>
<path d="M3960 3221 c0 -5 7 -12 16 -15 14 -5 15 -4 4 9 -14 17 -20 19 -20 6z"/>
</g>
</svg>
